/* XPM */ 
static const char * book_menu_xpm[] = {
"16 15 3 1",
" 	c None",
"!	c black",
"#	c #808080",
"                ",
"                ",
"                ",
"                ",
"!   ! !! ! ! ! !",
"!! !! !  ! ! ! !",
"!! !! !  !!! ! !",
"! ! ! !! !!! ! !",
"! ! ! !  !!! ! !",
"!   ! !  ! ! ! !",
"!   ! !! ! ! !!!",
"                ",
"                ",
"                ",
"                "};
