/* XPM */
static char * digdic_xpm[] = {
"16 16 8 1",
" 	c None",
".	c #000000",
"+	c #000080",
"@	c #FFFFFF",
"#	c #00FFFF",
"$	c #808080",
"%	c #C0C0C0",
"&	c #008080",
"         ..     ",
"       ..++.    ",
"     ..+++++.   ",
"   ..+++@++++.  ",
" ..+++#++#++++. ",
".++++++#++#++++.",
"$.++++++@++++$$.",
"$%.++++++++$$++.",
".$%.+++++$$+$++.",
"$.$%.++$$+++$.. ",
"$$.$%.$++++..$$ ",
".$..$%.++..$&&. ",
" .$..$...&&$&&. ",
"  .$...&&&&$... ",
"  .$.&&&....    ",
"   .....        "};
