/* XPM */ 
static const char * down_xpm[] = {
"16 15 2 1",
" 	c None",
"!	c black",
"                ",
"       !        ",
"       !        ",
"       !        ",
"       !        ",
"       !        ",
"       !        ",
"       !        ",
"       !        ",
"   !   !   !    ",
"    !  !  !     ",
"     ! ! !      ",
"      !!!       ",
"       !        ",
"                "};
