/* XPM */ 
static const char * search_end_word_xpm[] = {
"16 15 3 1",
" 	c None",
"!	c black",
"#	c #808080",
"                ",
"                ",
"                ",
"                ",
"                ",
"                ",
" !            ! ",
" ! # # #!!!!!!! ",
" !            ! ",
"                ",
"                ",
"                ",
"                ",
"                ",
"                "};
