/* XPM */ 
static const char * search_keyword_xpm[] = {
"16 15 3 1",
" 	c None",
"!	c black",
"#	c #808080",
"                ",
"                ",
"                ",
"                ",
" !!!  !   ! !!! ",
"!   ! !!  ! !  !",
"!   ! !!  ! !  !",
"!!!!! ! ! ! !  !",
"!   ! !  !! !  !",
"!   ! !  !! !  !",
"!   ! !   ! !!! ",
"                ",
"                ",
"                ",
"                "};
