/* XPM */ 
static const char * search_exact_word_xpm[] = {
"16 15 2 1",
" 	c None",
"!	c black",
"                ",
"                ",
"                ",
"                ",
"                ",
"                ",
" !            ! ",
" !!!!!!!!!!!!!! ",
" !            ! ",
"                ",
"                ",
"                ",
"                ",
"                ",
"                "};
